<?xml version="1.0" encoding="UTF-8" standalone="no"?>
<!-- Created with Inkscape (http://www.inkscape.org/) -->

<svg
   width="210mm"
   height="297mm"
   viewBox="0 0 210 297"
   version="1.1"
   id="svg1"
   xml:space="preserve"
   inkscape:version="1.4.2 (f4327f4, 2025-05-13)"
   sodipodi:docname="plakats.svg"
   xmlns:inkscape="http://www.inkscape.org/namespaces/inkscape"
   xmlns:sodipodi="http://sodipodi.sourceforge.net/DTD/sodipodi-0.dtd"
   xmlns="http://www.w3.org/2000/svg"
   xmlns:svg="http://www.w3.org/2000/svg"><sodipodi:namedview
     id="namedview1"
     pagecolor="#ffffff"
     bordercolor="#000000"
     borderopacity="0.25"
     inkscape:showpageshadow="2"
     inkscape:pageopacity="0.0"
     inkscape:pagecheckerboard="0"
     inkscape:deskcolor="#d1d1d1"
     inkscape:document-units="mm"
     inkscape:zoom="0.72604517"
     inkscape:cx="610.15487"
     inkscape:cy="558.50519"
     inkscape:window-width="1920"
     inkscape:window-height="1017"
     inkscape:window-x="-8"
     inkscape:window-y="-8"
     inkscape:window-maximized="1"
     inkscape:current-layer="layer1" /><defs
     id="defs1"><rect
       x="522.00609"
       y="297.50215"
       width="6.8866238"
       height="48.206367"
       id="rect22" /><rect
       x="-38.565093"
       y="45.451717"
       width="351.21782"
       height="37.187769"
       id="rect4" /><meshgradient
       inkscape:collect="always"
       id="meshgradient17"
       gradientUnits="userSpaceOnUse"
       x="84.127998"
       y="5.6770525"><meshrow
         id="meshrow17"><meshpatch
           id="meshpatch17"><stop
             path="c 28.974,0  57.9481,0  86.9221,0"
             style="stop-color:#000000;stop-opacity:1"
             id="stop18" /><stop
             path="c 0,6.08152  0,12.163  0,18.2445"
             style="stop-color:#ffffff;stop-opacity:1"
             id="stop19" /><stop
             path="c -28.974,0  -57.9481,0  -86.9221,0"
             style="stop-color:#000000;stop-opacity:1"
             id="stop20" /><stop
             path="c 0,-6.08152  0,-12.163  0,-18.2445"
             style="stop-color:#ffffff;stop-opacity:1"
             id="stop21" /></meshpatch></meshrow></meshgradient></defs><g
     inkscape:label="Slānis 1"
     inkscape:groupmode="layer"
     id="layer1"><rect
       style="fill:#8686c7;stroke:none;stroke-width:0.0000000475572;stroke-opacity:0;fill-opacity:1"
       id="rect1"
       width="210.63312"
       height="160.70799"
       x="1.3398245e-07"
       y="-0.36441705" /><rect
       style="fill:#b7e8bc;stroke:#000000;stroke-width:0.000000047625;fill-opacity:1"
       id="rect2"
       width="210.99756"
       height="141.02943"
       x="-0.72883439"
       y="155.97055" /><path
       id="rect6-8"
       style="fill:#ffffff;stroke:#000000;stroke-width:0.341312"
       d="m 74.717821,164.71894 c -22.61268,7.91668 -45.225377,15.8328 -67.83805,23.74984 0.150939,5.9068 0.300417,11.81411 0.451356,17.72091 22.812396,-7.9871 45.624834,-15.97273 68.437224,-23.95982 -0.15094,-5.9068 -0.30041,-11.81411 -0.45135,-17.72091 -0.19973,0.07 -0.39945,0.13996 -0.59918,0.21003 z" /><text
       xml:space="preserve"
       style="font-size:3.175px;text-align:start;writing-mode:lr-tb;direction:ltr;text-anchor:start;fill:none;stroke:#000000;stroke-width:0.000000047625"
       x="86.731285"
       y="13.847853"
       id="text2"><tspan
         sodipodi:role="line"
         id="tspan2"
         style="stroke-width:0.000000047625;fill:none"
         x="86.731285"
         y="13.847853">PERSINAS </tspan></text><text
       xml:space="preserve"
       style="font-size:8.46667px;line-height:1.2;text-align:start;writing-mode:lr-tb;direction:ltr;text-anchor:start;white-space:pre;inline-size:101.208;fill:#ffffff;fill-opacity:1;stroke:url(#meshgradient17);stroke-width:0.3;stroke-dasharray:none;stroke-opacity:1"
       x="83.451538"
       y="13.483436"
       id="text3"
       transform="matrix(1.2351316,0,0,1.0384007,-56.967106,-0.2038877)"><tspan
         x="83.451538"
         y="13.483436"
         id="tspan1">PERSONAS PRIVĀTO </tspan><tspan
         x="83.451538"
         y="23.64344"
         id="tspan4">DATU AIZSARDZĪBA</tspan></text><text
       xml:space="preserve"
       transform="scale(0.26458333)"
       id="text4"
       style="fill:#ffffff;text-orientation:auto;stroke-width:0.00000018;stroke:#000000;text-align:start;writing-mode:lr-tb;direction:ltr;stroke-opacity:1;fill-opacity:1;white-space:pre;shape-inside:url(#rect4)" /><path
       style="fill:#ffffff;fill-opacity:1;stroke:#000000;stroke-width:4.7625e-08;stroke-opacity:1"
       d="M 326.8822,65.230673 283.88098,41.543557"
       id="path5" /><path
       id="rect6"
       style="fill:#ffffff;stroke:#000000;stroke-width:0.319198"
       d="m 73.388178,26.522452 c -21.440337,7.30261 -42.88068,14.604715 -64.3209185,21.907654 0.142985,5.448632 0.28599,10.89773 0.428988,16.34636 C 31.125914,57.408903 52.755587,50.04269 74.385254,42.675121 74.242263,37.226492 74.099258,31.777386 73.95626,26.328757 c -0.190657,0.06457 -0.381322,0.129095 -0.571986,0.193745 z" /><path
       d="m 82.817078,36.867672 h -1.097414 l -2.515082,-3.234649 -0.631974,0.770852 v 2.463797 h -0.845476 v -7.264541 h 0.845476 v 3.790832 l 3.087273,-3.790832 h 1.024825 l -2.839611,3.415164 z m 4.334137,0 h -0.798508 v -0.58058 q -0.106757,0.08294 -0.290359,0.234183 -0.179351,0.146365 -0.350153,0.234184 -0.200694,0.112213 -0.461171,0.185392 -0.260469,0.07805 -0.610621,0.07805 -0.644782,0 -1.093136,-0.487877 -0.448366,-0.487882 -0.448366,-1.244095 0,-0.61961 0.230585,-1.000155 0.234856,-0.385426 0.666135,-0.604972 0.43555,-0.219547 1.04617,-0.297608 0.610621,-0.07806 1.310916,-0.117091 v -0.141485 q 0,-0.312244 -0.09823,-0.517154 -0.09398,-0.204909 -0.273284,-0.322 -0.170802,-0.112214 -0.409926,-0.151244 -0.239124,-0.03902 -0.499601,-0.03902 -0.315983,0 -0.704563,0.09757 -0.388583,0.09271 -0.802779,0.273215 h -0.0427 v -0.931857 q 0.234854,-0.07319 0.678941,-0.161 0.444097,-0.08782 0.875367,-0.08782 0.503869,0 0.875377,0.09758 0.375766,0.0927 0.649049,0.322 0.269016,0.224425 0.409927,0.580578 0.14091,0.356153 0.14091,0.883064 z M 86.352707,35.526 v -1.517309 q -0.367229,0.02439 -0.86683,0.07319 -0.495322,0.04879 -0.785691,0.141488 -0.345873,0.112213 -0.559384,0.351275 -0.213501,0.234183 -0.213501,0.64888 0,0.468365 0.247661,0.707426 0.247671,0.234184 0.755811,0.234184 0.422732,0 0.772883,-0.185397 0.350144,-0.190274 0.649051,-0.453727 z m 5.751812,-0.229305 q 0,0.746458 -0.542299,1.22458 -0.538031,0.478126 -1.473181,0.478126 -0.529493,0 -0.97358,-0.141487 -0.439818,-0.146365 -0.738724,-0.317122 v -1.029427 h 0.04269 q 0.380033,0.326879 0.845476,0.522031 0.46544,0.190273 0.892451,0.190273 0.529483,0 0.828391,-0.195151 0.298907,-0.195153 0.298907,-0.61473 0,-0.322001 -0.162266,-0.487881 -0.162255,-0.165879 -0.623426,-0.282969 -0.170803,-0.04391 -0.448366,-0.102455 -0.273285,-0.05855 -0.499592,-0.126849 -0.627704,-0.190274 -0.892451,-0.556186 -0.260478,-0.370788 -0.260478,-0.907456 0,-0.336637 0.119567,-0.634245 0.123827,-0.297607 0.371497,-0.53179 0.239123,-0.229304 0.606351,-0.361031 0.371498,-0.136607 0.8284,-0.136607 0.427002,0 0.862551,0.121971 0.439818,0.11709 0.730187,0.287847 v 0.980641 h -0.04269 q -0.307444,-0.258577 -0.747263,-0.434214 -0.439818,-0.180514 -0.86256,-0.180514 -0.439817,0 -0.742993,0.195152 -0.303176,0.190272 -0.303176,0.570819 0,0.336638 0.183608,0.507396 0.179351,0.170758 0.58074,0.27809 0.222039,0.05855 0.495332,0.117092 0.277553,0.05855 0.461163,0.107335 0.559384,0.146365 0.862559,0.502515 0.303176,0.361032 0.303175,0.956246 z m 5.085678,-4.790988 h -0.905258 v -0.951366 h 0.905258 z m -0.05128,6.361964 H 96.33614 v -5.449626 h 0.802777 z m 4.564723,-4.449472 h -0.0428 q -0.17933,-0.04879 -0.35014,-0.0683 -0.16653,-0.02439 -0.39712,-0.02439 -0.3715,0 -0.71738,0.190272 -0.345871,0.185396 -0.666128,0.483003 v 3.868893 h -0.802771 v -5.44963 h 0.802775 v 0.805004 q 0.478254,-0.439094 0.841214,-0.619609 0.36723,-0.185394 0.74726,-0.185394 0.20922,0 0.30317,0.01463 0.0939,0.0098 0.28182,0.04391 z m 8.02777,1.658795 q 0,0.663519 -0.16653,1.214823 -0.16654,0.546426 -0.46972,0.926972 -0.28182,0.361032 -0.66613,0.561064 -0.38003,0.195152 -0.80705,0.195152 -0.37149,0 -0.67467,-0.0927 -0.29891,-0.0927 -0.61063,-0.28785 v 2.283288 h -0.80277 v -7.459704 h 0.80277 v 0.57082 q 0.32026,-0.307364 0.71738,-0.512274 0.40139,-0.209789 0.85403,-0.209789 0.86254,0 1.34079,0.746458 0.48253,0.741579 0.48253,2.063735 z m -0.8284,0.02439 q 0,-0.98552 -0.29464,-1.4734 -0.29463,-0.487881 -0.90526,-0.487881 -0.34587,0 -0.69602,0.170758 -0.35015,0.170758 -0.67041,0.44885 v 3.088284 q 0.34161,0.175636 0.58501,0.239061 0.24767,0.06343 0.55939,0.06343 0.6704,0 1.04616,-0.517154 0.37577,-0.51715 0.37577,-1.531946 z m 6.07207,0.136607 h -3.51429 q 0,0.502517 0.13237,0.878186 0.13238,0.370788 0.36296,0.60985 0.22205,0.234183 0.52522,0.351274 0.30745,0.117091 0.67468,0.117091 0.48679,0 0.97785,-0.219547 0.49533,-0.224424 0.70456,-0.439091 h 0.0428 v 1.000154 q -0.40566,0.195153 -0.8284,0.32688 -0.42273,0.131728 -0.88818,0.131728 -1.18708,0 -1.85322,-0.73182 -0.66613,-0.736699 -0.66613,-2.088129 0,-1.336793 0.63624,-2.12228 0.64052,-0.785488 1.68243,-0.785488 0.96503,0 1.48598,0.644002 0.52523,0.644002 0.52523,1.829552 z m -0.78143,-0.702546 q -0.004,-0.722062 -0.32026,-1.117246 -0.31171,-0.395185 -0.95223,-0.395185 -0.64478,0 -1.02909,0.434215 -0.38004,0.434213 -0.43128,1.078216 z m 4.97465,-1.117246 h -0.0427 q -0.17935,-0.04879 -0.35015,-0.0683 -0.16654,-0.02439 -0.39711,-0.02439 -0.3715,0 -0.71738,0.190274 -0.34588,0.185394 -0.66614,0.483003 v 3.868891 H 116.192 V 31.41805 h 0.80277 v 0.805003 q 0.47826,-0.439093 0.84121,-0.619608 0.36724,-0.185395 0.74727,-0.185395 0.20923,0 0.30318,0.01463 0.0939,0.0098 0.28182,0.04391 z m 4.16334,2.878495 q 0,0.746458 -0.5423,1.22458 -0.53804,0.478124 -1.47318,0.478124 -0.5295,0 -0.97358,-0.141486 -0.43981,-0.146364 -0.73873,-0.317122 v -1.029428 h 0.0428 q 0.38004,0.326881 0.84548,0.522031 0.46543,0.190274 0.89245,0.190274 0.52948,0 0.82839,-0.195152 0.29891,-0.195152 0.29891,-0.614729 0,-0.322001 -0.16227,-0.487882 -0.16226,-0.165878 -0.62343,-0.28297 -0.1708,-0.04391 -0.44835,-0.102453 -0.27329,-0.05854 -0.49961,-0.12685 -0.6277,-0.190273 -0.89245,-0.556185 -0.26048,-0.370789 -0.26048,-0.907457 0,-0.336636 0.11957,-0.634244 0.12384,-0.297607 0.37149,-0.531791 0.23914,-0.229303 0.60635,-0.361031 0.37152,-0.136607 0.82841,-0.136607 0.427,0 0.86255,0.12197 0.43983,0.117092 0.73019,0.287849 v 0.98064 h -0.0428 q -0.30744,-0.258576 -0.74726,-0.434214 -0.43981,-0.180514 -0.86257,-0.180514 -0.43981,0 -0.74298,0.195152 -0.30318,0.190273 -0.30318,0.57082 0,0.336637 0.18362,0.507396 0.17933,0.170757 0.58073,0.278091 0.22203,0.05854 0.49533,0.117091 0.27755,0.05854 0.46116,0.107335 0.55938,0.146364 0.86256,0.502515 0.30318,0.361033 0.30318,0.956247 z m 5.21378,-1.1514 q 0,1.331915 -0.59781,2.102766 -0.59783,0.770851 -1.60129,0.770851 -1.01201,0 -1.60982,-0.770851 -0.59354,-0.770851 -0.59354,-2.102766 0,-1.331912 0.59354,-2.102763 0.59781,-0.775732 1.60982,-0.775732 1.00346,0 1.60129,0.775732 0.59781,0.770852 0.59781,2.102763 z m -0.8284,0 q 0,-1.058701 -0.36295,-1.570976 -0.36296,-0.517151 -1.00775,-0.517151 -0.65332,0 -1.01628,0.517151 -0.35869,0.512275 -0.35869,1.570976 0,1.02455 0.36296,1.556341 0.36296,0.52691 1.01201,0.52691 0.64051,0 1.00346,-0.522031 0.36724,-0.526911 0.36724,-1.56122 z m 6.05925,2.722375 h -0.80277 v -3.10292 q 0,-0.375667 -0.0384,-0.70255 -0.0384,-0.331757 -0.14092,-0.517153 -0.10676,-0.20491 -0.30745,-0.302485 -0.2007,-0.102455 -0.52095,-0.102455 -0.3288,0 -0.68748,0.185395 -0.35869,0.185393 -0.68748,0.473245 v 4.068923 h -0.80279 v -5.449624 h 0.80279 v 0.604969 q 0.37575,-0.356153 0.77715,-0.556184 0.40139,-0.200031 0.82412,-0.200031 0.77289,0 1.17856,0.53179 0.40564,0.53179 0.40564,1.531945 z m 5.25221,0 h -0.79851 V 36.28709 q -0.10675,0.08294 -0.29036,0.234183 -0.17934,0.146364 -0.35013,0.234182 -0.20071,0.112214 -0.46119,0.185394 -0.26047,0.07805 -0.61061,0.07805 -0.64479,0 -1.09315,-0.487878 -0.44836,-0.487881 -0.44836,-1.244095 0,-0.619609 0.23058,-1.000155 0.23486,-0.385425 0.66614,-0.604972 0.43555,-0.219546 1.04617,-0.297607 0.61062,-0.07806 1.31091,-0.117092 v -0.141483 q 0,-0.312244 -0.0982,-0.517154 -0.094,-0.204909 -0.27327,-0.322001 -0.17082,-0.112212 -0.40995,-0.151244 -0.23912,-0.03903 -0.49959,-0.03903 -0.31599,0 -0.70457,0.09758 -0.38857,0.09271 -0.80277,0.273215 h -0.0428 v -0.931858 q 0.23485,-0.07319 0.67895,-0.161 0.44409,-0.08782 0.87536,-0.08782 0.50387,0 0.87537,0.09758 0.37577,0.0927 0.64905,0.322 0.26901,0.224425 0.40993,0.580579 0.14092,0.356152 0.14092,0.883062 z m -0.79851,-1.341672 v -1.51731 q -0.36723,0.02439 -0.86682,0.07319 -0.49533,0.04879 -0.78569,0.141486 -0.34588,0.112213 -0.55939,0.351275 -0.2135,0.234184 -0.2135,0.64888 0,0.468367 0.24767,0.707427 0.24765,0.234184 0.7558,0.234184 0.42273,0 0.77288,-0.185397 0.35016,-0.190272 0.64905,-0.453727 z m 5.75181,-0.229304 q 0,0.746458 -0.5423,1.22458 -0.53803,0.478125 -1.47318,0.478125 -0.52949,0 -0.97358,-0.141487 -0.43982,-0.146365 -0.73872,-0.317122 v -1.029427 h 0.0428 q 0.38004,0.326881 0.84549,0.522031 0.46543,0.190274 0.89244,0.190274 0.5295,0 0.8284,-0.195152 0.29889,-0.195152 0.29889,-0.614729 0,-0.322001 -0.16225,-0.487882 -0.16226,-0.165878 -0.62344,-0.28297 -0.1708,-0.04391 -0.44835,-0.102453 -0.27329,-0.05854 -0.49961,-0.12685 -0.6277,-0.190273 -0.89244,-0.556185 -0.26048,-0.370789 -0.26048,-0.907457 0,-0.336636 0.11956,-0.634244 0.12384,-0.297607 0.3715,-0.531791 0.23913,-0.229303 0.60635,-0.361031 0.3715,-0.136607 0.8284,-0.136607 0.42701,0 0.86255,0.12197 0.43983,0.117092 0.7302,0.287849 v 0.98064 h -0.0428 q -0.30745,-0.258577 -0.74726,-0.434214 -0.43982,-0.180514 -0.86256,-0.180514 -0.43981,0 -0.743,0.195152 -0.30317,0.190272 -0.30317,0.570819 0,0.336637 0.18362,0.507396 0.17933,0.170757 0.58072,0.27809 0.22204,0.05854 0.49533,0.117092 0.27755,0.05854 0.46117,0.107335 0.55938,0.146365 0.86255,0.502515 0.30319,0.361032 0.30318,0.956247 z m 8.09182,1.570976 h -0.80277 v -0.570822 q -0.34588,0.341518 -0.72165,0.53179 -0.37577,0.190274 -0.81559,0.190274 -0.85401,0 -1.35788,-0.751336 -0.49961,-0.751337 -0.49961,-2.083249 0,-0.692792 0.17081,-1.234339 0.17507,-0.541547 0.46971,-0.922094 0.29036,-0.370789 0.67467,-0.565941 0.38858,-0.195153 0.80278,-0.195153 0.37577,0 0.66614,0.09271 0.29036,0.08782 0.61062,0.278091 v -2.361342 h 0.80277 z m -0.80277,-1.341672 v -3.127314 q -0.32453,-0.165879 -0.58075,-0.229305 -0.25619,-0.06343 -0.55937,-0.06343 -0.67467,0 -1.05044,0.53667 -0.37578,0.53667 -0.37578,1.522187 0,0.970883 0.29037,1.478279 0.29037,0.502517 0.93089,0.502517 0.34161,0 0.69175,-0.170759 0.35015,-0.175638 0.65333,-0.44885 z m 6.08914,1.341672 h -0.79851 V 36.28709 q -0.10675,0.08294 -0.29036,0.234183 -0.17934,0.146364 -0.35015,0.234182 -0.20069,0.112214 -0.46117,0.185394 -0.26048,0.07805 -0.61062,0.07805 -0.64479,0 -1.09315,-0.487878 -0.44836,-0.487881 -0.44836,-1.244095 0,-0.619609 0.23059,-1.000155 0.23486,-0.385425 0.66613,-0.604972 0.43555,-0.219546 1.04617,-0.297607 0.61063,-0.07806 1.31092,-0.117092 v -0.141483 q 0,-0.312244 -0.0982,-0.517154 -0.094,-0.204909 -0.27328,-0.322001 -0.17081,-0.112212 -0.40993,-0.151244 -0.23914,-0.03903 -0.4996,-0.03903 -0.31599,0 -0.70456,0.09758 -0.38858,0.09271 -0.80278,0.273215 h -0.0428 v -0.931858 q 0.23485,-0.07319 0.67893,-0.161 0.4441,-0.08782 0.87538,-0.08782 0.50386,0 0.87537,0.09758 0.37576,0.0927 0.64906,0.322 0.26901,0.224425 0.40991,0.580579 0.14092,0.356152 0.14092,0.883062 z m -0.79851,-1.341672 v -1.51731 q -0.36722,0.02439 -0.86683,0.07319 -0.49533,0.04879 -0.78569,0.141486 -0.34589,0.112213 -0.55938,0.351275 -0.2135,0.234184 -0.2135,0.64888 0,0.468367 0.24765,0.707427 0.24767,0.234184 0.75581,0.234184 0.42274,0 0.77289,-0.185397 0.35014,-0.190272 0.64905,-0.453727 z m 4.82094,1.292883 q -0.22633,0.0683 -0.49534,0.112213 -0.26474,0.04391 -0.47399,0.04391 -0.73017,0 -1.11021,-0.448851 -0.38004,-0.448849 -0.38004,-1.439248 v -2.89801 h -0.54231 v -0.770851 h 0.54231 v -1.566094 h 0.80277 v 1.566098 h 1.65681 v 0.77085 h -1.65681 v 2.483312 q 0,0.429335 0.0171,0.673276 0.0171,0.239062 0.11956,0.44885 0.0939,0.195152 0.25622,0.287849 0.16652,0.08782 0.50385,0.08782 0.19643,0 0.40993,-0.06343 0.21351,-0.0683 0.30747,-0.112212 h 0.0428 z m 1.83187,-6.313175 h -0.90528 v -0.951366 h 0.90528 z m -0.0512,6.361964 h -0.80278 v -5.449624 h 0.80278 z m 5.08994,-5.556959 q 0,0.478124 -0.14945,0.853791 -0.14945,0.37079 -0.39285,0.658639 -0.23912,0.278093 -0.55085,0.522031 -0.31172,0.243941 -0.66185,0.473246 v 1.09773 h -0.76435 v -1.488034 q 0.27756,-0.180516 0.59781,-0.395184 0.32452,-0.214668 0.52949,-0.434215 0.24767,-0.253696 0.38432,-0.522031 0.13663,-0.273213 0.13663,-0.692789 0,-0.551306 -0.32878,-0.819641 -0.32453,-0.273212 -0.84122,-0.273212 -0.46117,0 -0.87537,0.165879 -0.40992,0.165878 -0.64906,0.336638 h -0.0428 v -0.995276 q 0.29891,-0.131728 0.75582,-0.234183 0.46117,-0.107335 0.8711,-0.107335 0.91805,0 1.44755,0.512275 0.53376,0.507395 0.53376,1.341671 z m -1.68668,5.556959 h -0.8711 v -1.029426 h 0.8711 z"
       id="text6"
       style="font-size:11.6983px;line-height:1.2;fill:#ffffff;stroke:#000000;stroke-width:0.331218"
       aria-label="Kas ir personas dati?" /><text
       xml:space="preserve"
       style="font-size:8.46667px;line-height:1.2;text-align:start;writing-mode:lr-tb;direction:ltr;text-anchor:start;white-space:pre;inline-size:126.191;fill:#000000;fill-opacity:1;stroke:none;stroke-width:0.3;stroke-dasharray:none;stroke-opacity:0"
       x="57.577911"
       y="66.688339"
       id="text21"
       transform="translate(18.949693,-17.127607)"><tspan
         x="57.577911"
         y="66.688339"
         id="tspan5">Personas dati ir jebkura </tspan><tspan
         x="57.577911"
         y="76.848343"
         id="tspan6">informācija, kas attiecas uz </tspan><tspan
         x="57.577911"
         y="87.008346"
         id="tspan7">identificētu vai identificējamu </tspan><tspan
         x="57.577911"
         y="97.16835"
         id="tspan8">personu.</tspan></text><text
       xml:space="preserve"
       transform="scale(0.26458333)"
       id="text22"
       style="fill:#000000;text-orientation:auto;stroke-width:1.13385827;stroke:none;text-align:start;writing-mode:lr-tb;direction:ltr;stroke-opacity:0;fill-opacity:1;font-size:32px;stroke-dasharray:none;line-height:1.2;white-space:pre;shape-inside:url(#rect22)" /></g><script
     id="mesh_polyfill"
     type="text/javascript">
!function(){const t=&quot;http://www.w3.org/2000/svg&quot;,e=&quot;http://www.w3.org/1999/xlink&quot;,s=&quot;http://www.w3.org/1999/xhtml&quot;,r=2;if(document.createElementNS(t,&quot;meshgradient&quot;).x)return;const n=(t,e,s,r)=&gt;{let n=new x(.5*(e.x+s.x),.5*(e.y+s.y)),o=new x(.5*(t.x+e.x),.5*(t.y+e.y)),i=new x(.5*(s.x+r.x),.5*(s.y+r.y)),a=new x(.5*(n.x+o.x),.5*(n.y+o.y)),h=new x(.5*(n.x+i.x),.5*(n.y+i.y)),l=new x(.5*(a.x+h.x),.5*(a.y+h.y));return[[t,o,a,l],[l,h,i,r]]},o=t=&gt;{let e=t[0].distSquared(t[1]),s=t[2].distSquared(t[3]),r=.25*t[0].distSquared(t[2]),n=.25*t[1].distSquared(t[3]),o=e&gt;s?e:s,i=r&gt;n?r:n;return 18*(o&gt;i?o:i)},i=(t,e)=&gt;Math.sqrt(t.distSquared(e)),a=(t,e)=&gt;t.scale(2/3).add(e.scale(1/3)),h=t=&gt;{let e,s,r,n,o,i,a,h=new g;return t.match(/(\w+\(\s*[^)]+\))+/g).forEach(t=&gt;{let l=t.match(/[\w.-]+/g),d=l.shift();switch(d){case&quot;translate&quot;:2===l.length?e=new g(1,0,0,1,l[0],l[1]):(console.error(&quot;mesh.js: translate does not have 2 arguments!&quot;),e=new g(1,0,0,1,0,0)),h=h.append(e);break;case&quot;scale&quot;:1===l.length?s=new g(l[0],0,0,l[0],0,0):2===l.length?s=new g(l[0],0,0,l[1],0,0):(console.error(&quot;mesh.js: scale does not have 1 or 2 arguments!&quot;),s=new g(1,0,0,1,0,0)),h=h.append(s);break;case&quot;rotate&quot;:if(3===l.length&amp;&amp;(e=new g(1,0,0,1,l[1],l[2]),h=h.append(e)),l[0]){r=l[0]*Math.PI/180;let t=Math.cos(r),e=Math.sin(r);Math.abs(t)&lt;1e-16&amp;&amp;(t=0),Math.abs(e)&lt;1e-16&amp;&amp;(e=0),a=new g(t,e,-e,t,0,0),h=h.append(a)}else console.error(&quot;math.js: No argument to rotate transform!&quot;);3===l.length&amp;&amp;(e=new g(1,0,0,1,-l[1],-l[2]),h=h.append(e));break;case&quot;skewX&quot;:l[0]?(r=l[0]*Math.PI/180,n=Math.tan(r),o=new g(1,0,n,1,0,0),h=h.append(o)):console.error(&quot;math.js: No argument to skewX transform!&quot;);break;case&quot;skewY&quot;:l[0]?(r=l[0]*Math.PI/180,n=Math.tan(r),i=new g(1,n,0,1,0,0),h=h.append(i)):console.error(&quot;math.js: No argument to skewY transform!&quot;);break;case&quot;matrix&quot;:6===l.length?h=h.append(new g(...l)):console.error(&quot;math.js: Incorrect number of arguments for matrix!&quot;);break;default:console.error(&quot;mesh.js: Unhandled transform type: &quot;+d)}}),h},l=t=&gt;{let e=[],s=t.split(/[ ,]+/);for(let t=0,r=s.length-1;t&lt;r;t+=2)e.push(new x(parseFloat(s[t]),parseFloat(s[t+1])));return e},d=(t,e)=&gt;{for(let s in e)t.setAttribute(s,e[s])},c=(t,e,s,r,n)=&gt;{let o,i,a=[0,0,0,0];for(let h=0;h&lt;3;++h)e[h]&lt;t[h]&amp;&amp;e[h]&lt;s[h]||t[h]&lt;e[h]&amp;&amp;s[h]&lt;e[h]?a[h]=0:(a[h]=.5*((e[h]-t[h])/r+(s[h]-e[h])/n),o=Math.abs(3*(e[h]-t[h])/r),i=Math.abs(3*(s[h]-e[h])/n),a[h]&gt;o?a[h]=o:a[h]&gt;i&amp;&amp;(a[h]=i));return a},u=[[1,0,0,0,0,0,0,0,0,0,0,0,0,0,0,0],[0,0,0,0,1,0,0,0,0,0,0,0,0,0,0,0],[-3,3,0,0,-2,-1,0,0,0,0,0,0,0,0,0,0],[2,-2,0,0,1,1,0,0,0,0,0,0,0,0,0,0],[0,0,0,0,0,0,0,0,1,0,0,0,0,0,0,0],[0,0,0,0,0,0,0,0,0,0,0,0,1,0,0,0],[0,0,0,0,0,0,0,0,-3,3,0,0,-2,-1,0,0],[0,0,0,0,0,0,0,0,2,-2,0,0,1,1,0,0],[-3,0,3,0,0,0,0,0,-2,0,-1,0,0,0,0,0],[0,0,0,0,-3,0,3,0,0,0,0,0,-2,0,-1,0],[9,-9,-9,9,6,3,-6,-3,6,-6,3,-3,4,2,2,1],[-6,6,6,-6,-3,-3,3,3,-4,4,-2,2,-2,-2,-1,-1],[2,0,-2,0,0,0,0,0,1,0,1,0,0,0,0,0],[0,0,0,0,2,0,-2,0,0,0,0,0,1,0,1,0],[-6,6,6,-6,-4,-2,4,2,-3,3,-3,3,-2,-1,-2,-1],[4,-4,-4,4,2,2,-2,-2,2,-2,2,-2,1,1,1,1]],f=t=&gt;{let e=[];for(let s=0;s&lt;16;++s){e[s]=0;for(let r=0;r&lt;16;++r)e[s]+=u[s][r]*t[r]}return e},p=(t,e,s)=&gt;{const r=e*e,n=s*s,o=e*e*e,i=s*s*s;return t[0]+t[1]*e+t[2]*r+t[3]*o+t[4]*s+t[5]*s*e+t[6]*s*r+t[7]*s*o+t[8]*n+t[9]*n*e+t[10]*n*r+t[11]*n*o+t[12]*i+t[13]*i*e+t[14]*i*r+t[15]*i*o},y=t=&gt;{let e=[],s=[],r=[];for(let s=0;s&lt;4;++s)e[s]=[],e[s][0]=n(t[0][s],t[1][s],t[2][s],t[3][s]),e[s][1]=[],e[s][1].push(...n(...e[s][0][0])),e[s][1].push(...n(...e[s][0][1])),e[s][2]=[],e[s][2].push(...n(...e[s][1][0])),e[s][2].push(...n(...e[s][1][1])),e[s][2].push(...n(...e[s][1][2])),e[s][2].push(...n(...e[s][1][3]));for(let t=0;t&lt;8;++t){s[t]=[];for(let r=0;r&lt;4;++r)s[t][r]=[],s[t][r][0]=n(e[0][2][t][r],e[1][2][t][r],e[2][2][t][r],e[3][2][t][r]),s[t][r][1]=[],s[t][r][1].push(...n(...s[t][r][0][0])),s[t][r][1].push(...n(...s[t][r][0][1])),s[t][r][2]=[],s[t][r][2].push(...n(...s[t][r][1][0])),s[t][r][2].push(...n(...s[t][r][1][1])),s[t][r][2].push(...n(...s[t][r][1][2])),s[t][r][2].push(...n(...s[t][r][1][3]))}for(let t=0;t&lt;8;++t){r[t]=[];for(let e=0;e&lt;8;++e)r[t][e]=[],r[t][e][0]=s[t][0][2][e],r[t][e][1]=s[t][1][2][e],r[t][e][2]=s[t][2][2][e],r[t][e][3]=s[t][3][2][e]}return r};class x{constructor(t,e){this.x=t||0,this.y=e||0}toString(){return`(x=${this.x}, y=${this.y})`}clone(){return new x(this.x,this.y)}add(t){return new x(this.x+t.x,this.y+t.y)}scale(t){return void 0===t.x?new x(this.x*t,this.y*t):new x(this.x*t.x,this.y*t.y)}distSquared(t){let e=this.x-t.x,s=this.y-t.y;return e*e+s*s}transform(t){let e=this.x*t.a+this.y*t.c+t.e,s=this.x*t.b+this.y*t.d+t.f;return new x(e,s)}}class g{constructor(t,e,s,r,n,o){void 0===t?(this.a=1,this.b=0,this.c=0,this.d=1,this.e=0,this.f=0):(this.a=t,this.b=e,this.c=s,this.d=r,this.e=n,this.f=o)}toString(){return`affine: ${this.a} ${this.c} ${this.e} \n       ${this.b} ${this.d} ${this.f}`}append(t){t instanceof g||console.error(&quot;mesh.js: argument to Affine.append is not affine!&quot;);let e=this.a*t.a+this.c*t.b,s=this.b*t.a+this.d*t.b,r=this.a*t.c+this.c*t.d,n=this.b*t.c+this.d*t.d,o=this.a*t.e+this.c*t.f+this.e,i=this.b*t.e+this.d*t.f+this.f;return new g(e,s,r,n,o,i)}}class w{constructor(t,e){this.nodes=t,this.colors=e}paintCurve(t,e){if(o(this.nodes)&gt;r){const s=n(...this.nodes);let r=[[],[]],o=[[],[]];for(let t=0;t&lt;4;++t)r[0][t]=this.colors[0][t],r[1][t]=(this.colors[0][t]+this.colors[1][t])/2,o[0][t]=r[1][t],o[1][t]=this.colors[1][t];let i=new w(s[0],r),a=new w(s[1],o);i.paintCurve(t,e),a.paintCurve(t,e)}else{let s=Math.round(this.nodes[0].x);if(s&gt;=0&amp;&amp;s&lt;e){let r=4*(~~this.nodes[0].y*e+s);t[r]=Math.round(this.colors[0][0]),t[r+1]=Math.round(this.colors[0][1]),t[r+2]=Math.round(this.colors[0][2]),t[r+3]=Math.round(this.colors[0][3])}}}}class m{constructor(t,e){this.nodes=t,this.colors=e}split(){let t=[[],[],[],[]],e=[[],[],[],[]],s=[[[],[]],[[],[]]],r=[[[],[]],[[],[]]];for(let s=0;s&lt;4;++s){const r=n(this.nodes[0][s],this.nodes[1][s],this.nodes[2][s],this.nodes[3][s]);t[0][s]=r[0][0],t[1][s]=r[0][1],t[2][s]=r[0][2],t[3][s]=r[0][3],e[0][s]=r[1][0],e[1][s]=r[1][1],e[2][s]=r[1][2],e[3][s]=r[1][3]}for(let t=0;t&lt;4;++t)s[0][0][t]=this.colors[0][0][t],s[0][1][t]=this.colors[0][1][t],s[1][0][t]=(this.colors[0][0][t]+this.colors[1][0][t])/2,s[1][1][t]=(this.colors[0][1][t]+this.colors[1][1][t])/2,r[0][0][t]=s[1][0][t],r[0][1][t]=s[1][1][t],r[1][0][t]=this.colors[1][0][t],r[1][1][t]=this.colors[1][1][t];return[new m(t,s),new m(e,r)]}paint(t,e){let s,n=!1;for(let t=0;t&lt;4;++t)if((s=o([this.nodes[0][t],this.nodes[1][t],this.nodes[2][t],this.nodes[3][t]]))&gt;r){n=!0;break}if(n){let s=this.split();s[0].paint(t,e),s[1].paint(t,e)}else{new w([...this.nodes[0]],[...this.colors[0]]).paintCurve(t,e)}}}class b{constructor(t){this.readMesh(t),this.type=t.getAttribute(&quot;type&quot;)||&quot;bilinear&quot;}readMesh(t){let e=[[]],s=[[]],r=Number(t.getAttribute(&quot;x&quot;)),n=Number(t.getAttribute(&quot;y&quot;));e[0][0]=new x(r,n);let o=t.children;for(let t=0,r=o.length;t&lt;r;++t){e[3*t+1]=[],e[3*t+2]=[],e[3*t+3]=[],s[t+1]=[];let r=o[t].children;for(let n=0,o=r.length;n&lt;o;++n){let o=r[n].children;for(let r=0,i=o.length;r&lt;i;++r){let i=r;0!==t&amp;&amp;++i;let h,d=o[r].getAttribute(&quot;path&quot;),c=&quot;l&quot;;null!=d&amp;&amp;(c=(h=d.match(/\s*([lLcC])\s*(.*)/))[1]);let u=l(h[2]);switch(c){case&quot;l&quot;:0===i?(e[3*t][3*n+3]=u[0].add(e[3*t][3*n]),e[3*t][3*n+1]=a(e[3*t][3*n],e[3*t][3*n+3]),e[3*t][3*n+2]=a(e[3*t][3*n+3],e[3*t][3*n])):1===i?(e[3*t+3][3*n+3]=u[0].add(e[3*t][3*n+3]),e[3*t+1][3*n+3]=a(e[3*t][3*n+3],e[3*t+3][3*n+3]),e[3*t+2][3*n+3]=a(e[3*t+3][3*n+3],e[3*t][3*n+3])):2===i?(0===n&amp;&amp;(e[3*t+3][3*n+0]=u[0].add(e[3*t+3][3*n+3])),e[3*t+3][3*n+1]=a(e[3*t+3][3*n],e[3*t+3][3*n+3]),e[3*t+3][3*n+2]=a(e[3*t+3][3*n+3],e[3*t+3][3*n])):(e[3*t+1][3*n]=a(e[3*t][3*n],e[3*t+3][3*n]),e[3*t+2][3*n]=a(e[3*t+3][3*n],e[3*t][3*n]));break;case&quot;L&quot;:0===i?(e[3*t][3*n+3]=u[0],e[3*t][3*n+1]=a(e[3*t][3*n],e[3*t][3*n+3]),e[3*t][3*n+2]=a(e[3*t][3*n+3],e[3*t][3*n])):1===i?(e[3*t+3][3*n+3]=u[0],e[3*t+1][3*n+3]=a(e[3*t][3*n+3],e[3*t+3][3*n+3]),e[3*t+2][3*n+3]=a(e[3*t+3][3*n+3],e[3*t][3*n+3])):2===i?(0===n&amp;&amp;(e[3*t+3][3*n+0]=u[0]),e[3*t+3][3*n+1]=a(e[3*t+3][3*n],e[3*t+3][3*n+3]),e[3*t+3][3*n+2]=a(e[3*t+3][3*n+3],e[3*t+3][3*n])):(e[3*t+1][3*n]=a(e[3*t][3*n],e[3*t+3][3*n]),e[3*t+2][3*n]=a(e[3*t+3][3*n],e[3*t][3*n]));break;case&quot;c&quot;:0===i?(e[3*t][3*n+1]=u[0].add(e[3*t][3*n]),e[3*t][3*n+2]=u[1].add(e[3*t][3*n]),e[3*t][3*n+3]=u[2].add(e[3*t][3*n])):1===i?(e[3*t+1][3*n+3]=u[0].add(e[3*t][3*n+3]),e[3*t+2][3*n+3]=u[1].add(e[3*t][3*n+3]),e[3*t+3][3*n+3]=u[2].add(e[3*t][3*n+3])):2===i?(e[3*t+3][3*n+2]=u[0].add(e[3*t+3][3*n+3]),e[3*t+3][3*n+1]=u[1].add(e[3*t+3][3*n+3]),0===n&amp;&amp;(e[3*t+3][3*n+0]=u[2].add(e[3*t+3][3*n+3]))):(e[3*t+2][3*n]=u[0].add(e[3*t+3][3*n]),e[3*t+1][3*n]=u[1].add(e[3*t+3][3*n]));break;case&quot;C&quot;:0===i?(e[3*t][3*n+1]=u[0],e[3*t][3*n+2]=u[1],e[3*t][3*n+3]=u[2]):1===i?(e[3*t+1][3*n+3]=u[0],e[3*t+2][3*n+3]=u[1],e[3*t+3][3*n+3]=u[2]):2===i?(e[3*t+3][3*n+2]=u[0],e[3*t+3][3*n+1]=u[1],0===n&amp;&amp;(e[3*t+3][3*n+0]=u[2])):(e[3*t+2][3*n]=u[0],e[3*t+1][3*n]=u[1]);break;default:console.error(&quot;mesh.js: &quot;+c+&quot; invalid path type.&quot;)}if(0===t&amp;&amp;0===n||r&gt;0){let e=window.getComputedStyle(o[r]).stopColor.match(/^rgb\s*\(\s*(\d+)\s*,\s*(\d+)\s*,\s*(\d+)\s*\)$/i),a=window.getComputedStyle(o[r]).stopOpacity,h=255;a&amp;&amp;(h=Math.floor(255*a)),e&amp;&amp;(0===i?(s[t][n]=[],s[t][n][0]=Math.floor(e[1]),s[t][n][1]=Math.floor(e[2]),s[t][n][2]=Math.floor(e[3]),s[t][n][3]=h):1===i?(s[t][n+1]=[],s[t][n+1][0]=Math.floor(e[1]),s[t][n+1][1]=Math.floor(e[2]),s[t][n+1][2]=Math.floor(e[3]),s[t][n+1][3]=h):2===i?(s[t+1][n+1]=[],s[t+1][n+1][0]=Math.floor(e[1]),s[t+1][n+1][1]=Math.floor(e[2]),s[t+1][n+1][2]=Math.floor(e[3]),s[t+1][n+1][3]=h):3===i&amp;&amp;(s[t+1][n]=[],s[t+1][n][0]=Math.floor(e[1]),s[t+1][n][1]=Math.floor(e[2]),s[t+1][n][2]=Math.floor(e[3]),s[t+1][n][3]=h))}}e[3*t+1][3*n+1]=new x,e[3*t+1][3*n+2]=new x,e[3*t+2][3*n+1]=new x,e[3*t+2][3*n+2]=new x,e[3*t+1][3*n+1].x=(-4*e[3*t][3*n].x+6*(e[3*t][3*n+1].x+e[3*t+1][3*n].x)+-2*(e[3*t][3*n+3].x+e[3*t+3][3*n].x)+3*(e[3*t+3][3*n+1].x+e[3*t+1][3*n+3].x)+-1*e[3*t+3][3*n+3].x)/9,e[3*t+1][3*n+2].x=(-4*e[3*t][3*n+3].x+6*(e[3*t][3*n+2].x+e[3*t+1][3*n+3].x)+-2*(e[3*t][3*n].x+e[3*t+3][3*n+3].x)+3*(e[3*t+3][3*n+2].x+e[3*t+1][3*n].x)+-1*e[3*t+3][3*n].x)/9,e[3*t+2][3*n+1].x=(-4*e[3*t+3][3*n].x+6*(e[3*t+3][3*n+1].x+e[3*t+2][3*n].x)+-2*(e[3*t+3][3*n+3].x+e[3*t][3*n].x)+3*(e[3*t][3*n+1].x+e[3*t+2][3*n+3].x)+-1*e[3*t][3*n+3].x)/9,e[3*t+2][3*n+2].x=(-4*e[3*t+3][3*n+3].x+6*(e[3*t+3][3*n+2].x+e[3*t+2][3*n+3].x)+-2*(e[3*t+3][3*n].x+e[3*t][3*n+3].x)+3*(e[3*t][3*n+2].x+e[3*t+2][3*n].x)+-1*e[3*t][3*n].x)/9,e[3*t+1][3*n+1].y=(-4*e[3*t][3*n].y+6*(e[3*t][3*n+1].y+e[3*t+1][3*n].y)+-2*(e[3*t][3*n+3].y+e[3*t+3][3*n].y)+3*(e[3*t+3][3*n+1].y+e[3*t+1][3*n+3].y)+-1*e[3*t+3][3*n+3].y)/9,e[3*t+1][3*n+2].y=(-4*e[3*t][3*n+3].y+6*(e[3*t][3*n+2].y+e[3*t+1][3*n+3].y)+-2*(e[3*t][3*n].y+e[3*t+3][3*n+3].y)+3*(e[3*t+3][3*n+2].y+e[3*t+1][3*n].y)+-1*e[3*t+3][3*n].y)/9,e[3*t+2][3*n+1].y=(-4*e[3*t+3][3*n].y+6*(e[3*t+3][3*n+1].y+e[3*t+2][3*n].y)+-2*(e[3*t+3][3*n+3].y+e[3*t][3*n].y)+3*(e[3*t][3*n+1].y+e[3*t+2][3*n+3].y)+-1*e[3*t][3*n+3].y)/9,e[3*t+2][3*n+2].y=(-4*e[3*t+3][3*n+3].y+6*(e[3*t+3][3*n+2].y+e[3*t+2][3*n+3].y)+-2*(e[3*t+3][3*n].y+e[3*t][3*n+3].y)+3*(e[3*t][3*n+2].y+e[3*t+2][3*n].y)+-1*e[3*t][3*n].y)/9}}this.nodes=e,this.colors=s}paintMesh(t,e){let s=(this.nodes.length-1)/3,r=(this.nodes[0].length-1)/3;if(&quot;bilinear&quot;===this.type||s&lt;2||r&lt;2){let n;for(let o=0;o&lt;s;++o)for(let s=0;s&lt;r;++s){let r=[];for(let t=3*o,e=3*o+4;t&lt;e;++t)r.push(this.nodes[t].slice(3*s,3*s+4));let i=[];i.push(this.colors[o].slice(s,s+2)),i.push(this.colors[o+1].slice(s,s+2)),(n=new m(r,i)).paint(t,e)}}else{let n,o,a,h,l,d,u;const x=s,g=r;s++,r++;let w=new Array(s);for(let t=0;t&lt;s;++t){w[t]=new Array(r);for(let e=0;e&lt;r;++e)w[t][e]=[],w[t][e][0]=this.nodes[3*t][3*e],w[t][e][1]=this.colors[t][e]}for(let t=0;t&lt;s;++t)for(let e=0;e&lt;r;++e)0!==t&amp;&amp;t!==x&amp;&amp;(n=i(w[t-1][e][0],w[t][e][0]),o=i(w[t+1][e][0],w[t][e][0]),w[t][e][2]=c(w[t-1][e][1],w[t][e][1],w[t+1][e][1],n,o)),0!==e&amp;&amp;e!==g&amp;&amp;(n=i(w[t][e-1][0],w[t][e][0]),o=i(w[t][e+1][0],w[t][e][0]),w[t][e][3]=c(w[t][e-1][1],w[t][e][1],w[t][e+1][1],n,o));for(let t=0;t&lt;r;++t){w[0][t][2]=[],w[x][t][2]=[];for(let e=0;e&lt;4;++e)n=i(w[1][t][0],w[0][t][0]),o=i(w[x][t][0],w[x-1][t][0]),w[0][t][2][e]=n&gt;0?2*(w[1][t][1][e]-w[0][t][1][e])/n-w[1][t][2][e]:0,w[x][t][2][e]=o&gt;0?2*(w[x][t][1][e]-w[x-1][t][1][e])/o-w[x-1][t][2][e]:0}for(let t=0;t&lt;s;++t){w[t][0][3]=[],w[t][g][3]=[];for(let e=0;e&lt;4;++e)n=i(w[t][1][0],w[t][0][0]),o=i(w[t][g][0],w[t][g-1][0]),w[t][0][3][e]=n&gt;0?2*(w[t][1][1][e]-w[t][0][1][e])/n-w[t][1][3][e]:0,w[t][g][3][e]=o&gt;0?2*(w[t][g][1][e]-w[t][g-1][1][e])/o-w[t][g-1][3][e]:0}for(let s=0;s&lt;x;++s)for(let r=0;r&lt;g;++r){let n=i(w[s][r][0],w[s+1][r][0]),o=i(w[s][r+1][0],w[s+1][r+1][0]),c=i(w[s][r][0],w[s][r+1][0]),x=i(w[s+1][r][0],w[s+1][r+1][0]),g=[[],[],[],[]];for(let t=0;t&lt;4;++t){(d=[])[0]=w[s][r][1][t],d[1]=w[s+1][r][1][t],d[2]=w[s][r+1][1][t],d[3]=w[s+1][r+1][1][t],d[4]=w[s][r][2][t]*n,d[5]=w[s+1][r][2][t]*n,d[6]=w[s][r+1][2][t]*o,d[7]=w[s+1][r+1][2][t]*o,d[8]=w[s][r][3][t]*c,d[9]=w[s+1][r][3][t]*x,d[10]=w[s][r+1][3][t]*c,d[11]=w[s+1][r+1][3][t]*x,d[12]=0,d[13]=0,d[14]=0,d[15]=0,u=f(d);for(let e=0;e&lt;9;++e){g[t][e]=[];for(let s=0;s&lt;9;++s)g[t][e][s]=p(u,e/8,s/8),g[t][e][s]&gt;255?g[t][e][s]=255:g[t][e][s]&lt;0&amp;&amp;(g[t][e][s]=0)}}h=[];for(let t=3*s,e=3*s+4;t&lt;e;++t)h.push(this.nodes[t].slice(3*r,3*r+4));l=y(h);for(let s=0;s&lt;8;++s)for(let r=0;r&lt;8;++r)(a=new m(l[s][r],[[[g[0][s][r],g[1][s][r],g[2][s][r],g[3][s][r]],[g[0][s][r+1],g[1][s][r+1],g[2][s][r+1],g[3][s][r+1]]],[[g[0][s+1][r],g[1][s+1][r],g[2][s+1][r],g[3][s+1][r]],[g[0][s+1][r+1],g[1][s+1][r+1],g[2][s+1][r+1],g[3][s+1][r+1]]]])).paint(t,e)}}}transform(t){if(t instanceof x)for(let e=0,s=this.nodes.length;e&lt;s;++e)for(let s=0,r=this.nodes[0].length;s&lt;r;++s)this.nodes[e][s]=this.nodes[e][s].add(t);else if(t instanceof g)for(let e=0,s=this.nodes.length;e&lt;s;++e)for(let s=0,r=this.nodes[0].length;s&lt;r;++s)this.nodes[e][s]=this.nodes[e][s].transform(t)}scale(t){for(let e=0,s=this.nodes.length;e&lt;s;++e)for(let s=0,r=this.nodes[0].length;s&lt;r;++s)this.nodes[e][s]=this.nodes[e][s].scale(t)}}document.querySelectorAll(&quot;rect,circle,ellipse,path,text&quot;).forEach((r,n)=&gt;{let o=r.getAttribute(&quot;id&quot;);o||(o=&quot;patchjs_shape&quot;+n,r.setAttribute(&quot;id&quot;,o));const i=r.style.fill.match(/^url\(\s*&quot;?\s*#([^\s&quot;]+)&quot;?\s*\)/),a=r.style.stroke.match(/^url\(\s*&quot;?\s*#([^\s&quot;]+)&quot;?\s*\)/);if(i&amp;&amp;i[1]){const a=document.getElementById(i[1]);if(a&amp;&amp;&quot;meshgradient&quot;===a.nodeName){const i=r.getBBox();let l=document.createElementNS(s,&quot;canvas&quot;);d(l,{width:i.width,height:i.height});const c=l.getContext(&quot;2d&quot;);let u=c.createImageData(i.width,i.height);const f=new b(a);&quot;objectBoundingBox&quot;===a.getAttribute(&quot;gradientUnits&quot;)&amp;&amp;f.scale(new x(i.width,i.height));const p=a.getAttribute(&quot;gradientTransform&quot;);null!=p&amp;&amp;f.transform(h(p)),&quot;userSpaceOnUse&quot;===a.getAttribute(&quot;gradientUnits&quot;)&amp;&amp;f.transform(new x(-i.x,-i.y)),f.paintMesh(u.data,l.width),c.putImageData(u,0,0);const y=document.createElementNS(t,&quot;image&quot;);d(y,{width:i.width,height:i.height,x:i.x,y:i.y});let g=l.toDataURL();y.setAttributeNS(e,&quot;xlink:href&quot;,g),r.parentNode.insertBefore(y,r),r.style.fill=&quot;none&quot;;const w=document.createElementNS(t,&quot;use&quot;);w.setAttributeNS(e,&quot;xlink:href&quot;,&quot;#&quot;+o);const m=&quot;patchjs_clip&quot;+n,M=document.createElementNS(t,&quot;clipPath&quot;);M.setAttribute(&quot;id&quot;,m),M.appendChild(w),r.parentElement.insertBefore(M,r),y.setAttribute(&quot;clip-path&quot;,&quot;url(#&quot;+m+&quot;)&quot;),u=null,l=null,g=null}}if(a&amp;&amp;a[1]){const o=document.getElementById(a[1]);if(o&amp;&amp;&quot;meshgradient&quot;===o.nodeName){const i=parseFloat(r.style.strokeWidth.slice(0,-2))*(parseFloat(r.style.strokeMiterlimit)||parseFloat(r.getAttribute(&quot;stroke-miterlimit&quot;))||1),a=r.getBBox(),l=Math.trunc(a.width+i),c=Math.trunc(a.height+i),u=Math.trunc(a.x-i/2),f=Math.trunc(a.y-i/2);let p=document.createElementNS(s,&quot;canvas&quot;);d(p,{width:l,height:c});const y=p.getContext(&quot;2d&quot;);let g=y.createImageData(l,c);const w=new b(o);&quot;objectBoundingBox&quot;===o.getAttribute(&quot;gradientUnits&quot;)&amp;&amp;w.scale(new x(l,c));const m=o.getAttribute(&quot;gradientTransform&quot;);null!=m&amp;&amp;w.transform(h(m)),&quot;userSpaceOnUse&quot;===o.getAttribute(&quot;gradientUnits&quot;)&amp;&amp;w.transform(new x(-u,-f)),w.paintMesh(g.data,p.width),y.putImageData(g,0,0);const M=document.createElementNS(t,&quot;image&quot;);d(M,{width:l,height:c,x:0,y:0});let S=p.toDataURL();M.setAttributeNS(e,&quot;xlink:href&quot;,S);const k=&quot;pattern_clip&quot;+n,A=document.createElementNS(t,&quot;pattern&quot;);d(A,{id:k,patternUnits:&quot;userSpaceOnUse&quot;,width:l,height:c,x:u,y:f}),A.appendChild(M),o.parentNode.appendChild(A),r.style.stroke=&quot;url(#&quot;+k+&quot;)&quot;,g=null,p=null,S=null}}})}();
</script></svg>
